<svg aria-hidden="true" style="position: absolute; width: 0; height: 0; overflow: hidden;" version="1.1" xmlns="http://www.w3.org/2000/svg" xmlns:xlink="http://www.w3.org/1999/xlink">
<defs>
<symbol id="icon_close" viewBox="0 0 32 32">
<title>icon_close</title>
<path d="M17.253 16l7.37-7.37c0.13-0.154 0.209-0.354 0.209-0.573 0-0.491-0.398-0.89-0.89-0.89-0.219 0-0.42 0.079-0.575 0.211l0.001-0.001-7.368 7.37-7.37-7.378c-0.159-0.147-0.372-0.237-0.606-0.237-0.493 0-0.893 0.4-0.893 0.893 0 0.234 0.090 0.447 0.237 0.606l-0.001-0.001 7.378 7.37-7.376 7.368c-0.194 0.164-0.316 0.408-0.316 0.68 0 0.491 0.398 0.89 0.89 0.89 0.272 0 0.515-0.122 0.678-0.314l0.001-0.001 7.376-7.37 7.37 7.37c0.155 0.133 0.357 0.214 0.579 0.214 0.491 0 0.89-0.398 0.89-0.89 0-0.222-0.081-0.424-0.215-0.58l0.001 0.001-7.37-7.368z"></path>
</symbol>
<symbol id="icon-Vector" viewBox="0 0 32 32">
<path d="M16 30.144l-2.24-2.218c-8.32-7.287-13.76-12.198-13.76-18.218 0-4.911 3.84-8.713 8.8-8.713 2.72 0 5.44 1.267 7.2 3.327 1.76-2.059 4.48-3.327 7.2-3.327 4.96 0 8.8 3.802 8.8 8.713 0 6.020-5.44 10.931-13.76 18.218l-2.24 2.218z"></path>
</symbol>
<symbol id="icon-moon" viewBox="0 0 32 32">
<path d="M10.895 7.574c0 7.55 5.179 13.67 11.567 13.67 1.588 0 3.101-0.38 4.479-1.063-1.695 4.46-5.996 7.636-11.051 7.636-6.533 0-11.83-5.297-11.83-11.83 0-4.82 2.888-8.959 7.023-10.803-0.116 0.778-0.188 1.573-0.188 2.39z"></path>
</symbol>
<symbol id="icon-sun" viewBox="0 0 32 32">
<path d="M16 26c1.105 0 2 0.895 2 2v2c0 1.105-0.895 2-2 2s-2-0.895-2-2v-2c0-1.105 0.895-2 2-2zM16 6c-1.105 0-2-0.895-2-2v-2c0-1.105 0.895-2 2-2s2 0.895 2 2v2c0 1.105-0.895 2-2 2zM30 14c1.105 0 2 0.895 2 2s-0.895 2-2 2h-2c-1.105 0-2-0.895-2-2s0.895-2 2-2h2zM6 16c0 1.105-0.895 2-2 2h-2c-1.105 0-2-0.895-2-2s0.895-2 2-2h2c1.105 0 2 0.895 2 2zM25.899 23.071l1.414 1.414c0.781 0.781 0.781 2.047 0 2.828s-2.047 0.781-2.828 0l-1.414-1.414c-0.781-0.781-0.781-2.047 0-2.828s2.047-0.781 2.828 0zM6.101 8.929l-1.414-1.414c-0.781-0.781-0.781-2.047 0-2.828s2.047-0.781 2.828 0l1.414 1.414c0.781 0.781 0.781 2.047 0 2.828s-2.047 0.781-2.828 0zM25.899 8.929c-0.781 0.781-2.047 0.781-2.828 0s-0.781-2.047 0-2.828l1.414-1.414c0.781-0.781 2.047-0.781 2.828 0s0.781 2.047 0 2.828l-1.414 1.414zM6.101 23.071c0.781-0.781 2.047-0.781 2.828 0s0.781 2.047 0 2.828l-1.414 1.414c-0.781 0.781-2.047 0.781-2.828 0s-0.781-2.047 0-2.828l1.414-1.414z"></path>
<path d="M16 8c-4.418 0-8 3.582-8 8s3.582 8 8 8c4.418 0 8-3.582 8-8s-3.582-8-8-8zM16 21c-2.761 0-5-2.239-5-5s2.239-5 5-5 5 2.239 5 5-2.239 5-5 5z"></path>
</symbol>
<symbol id='icon-close' viewBox="0 0 30 30">
<svg  fill="none">
<path d="M8 8L22 22" stroke="black" stroke-width="2"/>
<path d="M8 22L22 8" stroke="black" stroke-width="2"/>
</svg>
</symbol>
</defs>
</svg>